<?xml version="1.0" encoding="utf-8"?>
<svg xmlns="http://www.w3.org/2000/svg" viewBox="0 0 500 500">
  <g id="Grupo_1085" data-name="Grupo 1085" transform="matrix(0, 10.426419, -10.426419, 0, 231.269867, 207.225845)" style="transform-origin: 16.5344px 23.3262px;">
    <g id="Grupo_1084" data-name="Grupo 1084">
      <g id="Grupo_1083" data-name="Grupo 1083">
        <path id="Caminho_744" data-name="Caminho 744" d="M1118.012,308.406a6.9,6.9,0,0,1,6.847-2.605c1-.821,2.176-1.759,3.62-2.9.1-.077.195-.156.293-.234l-.007,0a10.875,10.875,0,0,0-12.6,2.038c-.127.143-.257.285-.379.435-.141.167-.293.346-.45.511.171.2,1.225,1.4,2.628,2.813C1117.983,308.443,1118,308.423,1118.012,308.406Z" transform="translate(-1103.596 -282.449)" fill="#1074ab"/>
        <path id="Caminho_745" data-name="Caminho 745" d="M1076.96,258.413c-.022.023.014-.016,0,.008-3.674-4.586-7.69-12.055-1.705-18.562a30.161,30.161,0,0,0-9.43,15.689c-2.7,12.775,3.915,20.131,9.778,23.733C1069.682,274.351,1071.4,265.155,1076.96,258.413Z" transform="translate(-1065.199 -235.224)" fill="#8dc63f"/>
        <path id="Caminho_746" data-name="Caminho 746" d="M1099.816,245.85l-.054.063c.019-.025.036-.048.057-.071,5.938-7.021,16.437-15.091,13.21-19.708-2.067-2.948-6.663-3.093-9.375-2.233-.1.041-.205.083-.307.13a20.569,20.569,0,0,0-5.236,3.257C1092.126,233.795,1096.142,241.264,1099.816,245.85Z" transform="translate(-1088.058 -222.653)" fill="#d7df23"/>
        <path id="Caminho_747" data-name="Caminho 747" d="M1134.142,306.384c-.1.079-.194.157-.293.234-1.445,1.14-2.624,2.078-3.62,2.9,13.036,2.509,11.433,22.227-2.928,22.9a14.19,14.19,0,0,1-4.947-.7c.167.065.412.151.559.2,8.663,2.893,16.561-1.478,18.539-8.875C1143.305,316.109,1140.656,309.415,1134.142,306.384Z" transform="translate(-1108.965 -286.166)" fill="#f15a22"/>
        <path id="Caminho_748" data-name="Caminho 748" d="M1121.9,221.32c2.711-.86,7.307-.715,9.375,2.233,3.085,4.408-6.371,11.976-12.4,18.773a10.871,10.871,0,0,1,12.593-2.038l.01,0C1148.719,226.528,1133.556,216.437,1121.9,221.32Z" transform="translate(-1106.307 -220.072)" fill="#3c9cd7"/>
        <path id="Caminho_749" data-name="Caminho 749" d="M1098.858,319.074v0l.007-.008Zm.034,10.7-.014-.02c-2.319-4.114-1.912-7.926.009-10.652l.053.061a.635.635,0,0,0-.075-.084l0,0h0a.011.011,0,0,0,0-.008h0l0,0,0,0c-5.546,6.734-7.267,15.913-1.367,20.847.081.051.164.106.245.161a17.808,17.808,0,0,0,2.316,1.172l0,0C1095.22,339.281,1096.681,333.647,1098.892,329.769Z" transform="translate(-1087.104 -295.88)" fill="#3c9cd7"/>
        <path id="Caminho_750" data-name="Caminho 750" d="M1126.537,353.535a7.457,7.457,0,0,0,.333-2.258c.053.708-.607,3.812-3.317,4.638a5.33,5.33,0,0,1-6.5-3.9c-.573.89-1.152,1.781-1.529,2.416C1118.343,358.24,1124.7,358.848,1126.537,353.535Z" transform="translate(-1103.734 -320.543)" fill="#f15a22"/>
        <path id="Caminho_751" data-name="Caminho 751" d="M1111.807,327.474a6.382,6.382,0,0,1,1.059-5.464c-1.354-1.361-2.368-2.526-2.592-2.787-1.919,2.724-2.327,6.536-.01,10.639l.016.025c.377-.634.956-1.523,1.527-2.413Z" transform="translate(-1098.492 -295.998)" fill="#1074ab"/>
        <path id="Caminho_752" data-name="Caminho 752" d="M1119.522,320.069c-.094-.023-.19-.051-.287-.079-.073-.018-.148-.041-.225-.059s-.169-.044-.249-.062c-.166-.036-.331-.075-.5-.106l-.069.026a56.258,56.258,0,0,0-4.376,3.98,3.9,3.9,0,0,1,5.848,1.191c.032.056.06.115.086.169.016.035.037.066.051.1.036.08.065.16.1.241a4.015,4.015,0,0,1,.238,1.623c0,.063,0,.129,0,.194a7.7,7.7,0,0,1-.333,2.117c-1.839,5.313-8.195,4.7-11.015.9-2.211,3.878-3.672,9.511,1.17,11.494.1.044.266.1.472.177a14.235,14.235,0,0,0,4.905.692C1129.213,342.013,1131.174,323.576,1119.522,320.069Z" transform="translate(-1096.996 -296.411)" fill="#f58220"/>
        <path id="Caminho_753" data-name="Caminho 753" d="M1129.017,323.319a53.924,53.924,0,0,1,4.433-3.995,6.9,6.9,0,0,0-6.847,2.605c-.012.016-.029.037-.043.055.586.59,1.239,1.219,1.924,1.834A4.178,4.178,0,0,1,1129.017,323.319Z" transform="translate(-1112.187 -295.973)" fill="#f15a22"/>
        <path id="Caminho_754" data-name="Caminho 754" d="M1124.353,332.9c-.7-.618-1.354-1.255-1.942-1.85l.009.013a6.334,6.334,0,0,0-1.056,5.466,34.8,34.8,0,0,1,2.791-3.387A2.07,2.07,0,0,1,1124.353,332.9Z" transform="translate(-1108.05 -305.057)" fill="#f15a22"/>
        <path id="Caminho_755" data-name="Caminho 755" d="M1131.858,342.3a3.985,3.985,0,0,1-.127,1.038h0v.008a3.9,3.9,0,0,1-4.778,2.761h-.007a3.914,3.914,0,0,1-2.768-4.787,3.844,3.844,0,0,1,.642-1.323,35.093,35.093,0,0,0-2.787,3.385v0l0,0,0,0,0,0a5.33,5.33,0,0,0,6.5,3.9c2.57-.784,3.292-3.607,3.317-4.5a5.041,5.041,0,0,1-.043.71A5.212,5.212,0,0,0,1131.858,342.3Z" transform="translate(-1108.713 -311.906)" fill="#f58220"/>
      </g>
    </g>
  </g>
</svg>